<svg xmlns="http://www.w3.org/2000/svg" xmlns:xlink="http://www.w3.org/1999/xlink" width="1681pt" height="1135pt" viewBox="0.00 0.00 1681.00 1135.00">
<g id="graph0" class="graph" transform="scale(1 1) rotate(0) translate(4 1131)">
<title>_94202956345120</title>
<polygon fill="white" stroke="transparent" points="-4,4 -4,-1131 1677,-1131 1677,4 -4,4"/>
<g id="clust1" class="cluster">
<title>cluster94202956345120diagram</title>
<polygon fill="none" stroke="black" points="8,-8 8,-1119 1665,-1119 1665,-8 8,-8"/>
<text text-anchor="middle" x="836.5" y="-1103.8" font-family="Times,serif" font-size="14.00">94202956345120</text>
</g>
<g id="clust4" class="cluster">
<title>cluster94202956345120subsystems</title>
<polygon fill="none" stroke="white" points="16,-16 16,-1088 1657,-1088 1657,-16 16,-16"/>
</g>
<g id="clust5" class="cluster">
<title>cluster94203035847392diagram</title>
<polygon fill="none" stroke="black" points="24,-24 24,-1080 1649,-1080 1649,-24 24,-24"/>
<text text-anchor="middle" x="836.5" y="-1064.8" font-family="Times,serif" font-size="14.00">HardwareStation</text>
</g>
<g id="clust7" class="cluster">
<title>cluster94203035847392outputports</title>
<polygon fill="lightgrey" stroke="lightgrey" points="1386.36,-812 1386.36,-1049 1637.64,-1049 1637.64,-812 1386.36,-812"/>
<text text-anchor="middle" x="1512" y="-1033.8" font-family="Times,serif" font-size="14.00">output ports</text>
</g>
<g id="clust8" class="cluster">
<title>cluster94203035847392subsystems</title>
<polygon fill="none" stroke="white" points="32,-32 32,-804 1641,-804 1641,-32 32,-32"/>
</g>
<!-- _94203035847392_y0 -->
<g id="node1" class="node">
<title>_94203035847392_y0</title>
<ellipse fill="none" stroke="green" cx="1512" cy="-838" rx="70.39" ry="18"/>
<text text-anchor="middle" x="1512" y="-834.3" font-family="Times,serif" font-size="14.00">query_object</text>
</g>
<!-- _94203035847392_y1 -->
<g id="node2" class="node">
<title>_94203035847392_y1</title>
<ellipse fill="none" stroke="green" cx="1512" cy="-892" rx="81.49" ry="18"/>
<text text-anchor="middle" x="1512" y="-888.3" font-family="Times,serif" font-size="14.00">contact_results</text>
</g>
<!-- _94203035847392_y2 -->
<g id="node3" class="node">
<title>_94203035847392_y2</title>
<ellipse fill="none" stroke="green" cx="1512" cy="-1000" rx="117.78" ry="18"/>
<text text-anchor="middle" x="1512" y="-996.3" font-family="Times,serif" font-size="14.00">plant_continuous_state</text>
</g>
<!-- _94203035847392_y3 -->
<g id="node4" class="node">
<title>_94203035847392_y3</title>
<ellipse fill="none" stroke="green" cx="1512" cy="-946" rx="63.89" ry="18"/>
<text text-anchor="middle" x="1512" y="-942.3" font-family="Times,serif" font-size="14.00">body_poses</text>
</g>
<!-- 94203003365408 -->
<g id="node5" class="node">
<title>94203003365408</title>
<polygon fill="none" stroke="black" points="40,-105 40,-795 691,-795 691,-105 40,-105"/>
<text text-anchor="middle" x="365.5" y="-779.8" font-family="Times,serif" font-size="14.00">plant</text>
<polyline fill="none" stroke="black" points="40,-772 691,-772 "/>
<text text-anchor="middle" x="178.5" y="-749.8" font-family="Times,serif" font-size="14.00">geometry_query</text>
<polyline fill="none" stroke="black" points="40,-735 317,-735 "/>
<text text-anchor="middle" x="178.5" y="-712.8" font-family="Times,serif" font-size="14.00">WorldModelInstance_actuation</text>
<polyline fill="none" stroke="black" points="40,-698 317,-698 "/>
<text text-anchor="middle" x="178.5" y="-675.8" font-family="Times,serif" font-size="14.00">DefaultModelInstance_actuation</text>
<polyline fill="none" stroke="black" points="40,-661 317,-661 "/>
<text text-anchor="middle" x="178.5" y="-638.8" font-family="Times,serif" font-size="14.00">iiwa_actuation</text>
<polyline fill="none" stroke="black" points="40,-624 317,-624 "/>
<text text-anchor="middle" x="178.5" y="-601.8" font-family="Times,serif" font-size="14.00">wsg_actuation</text>
<polyline fill="none" stroke="black" points="40,-587 317,-587 "/>
<text text-anchor="middle" x="178.5" y="-564.8" font-family="Times,serif" font-size="14.00">shelves1_actuation</text>
<polyline fill="none" stroke="black" points="40,-550 317,-550 "/>
<text text-anchor="middle" x="178.5" y="-527.8" font-family="Times,serif" font-size="14.00">shelves2_actuation</text>
<polyline fill="none" stroke="black" points="40,-513 317,-513 "/>
<text text-anchor="middle" x="178.5" y="-490.8" font-family="Times,serif" font-size="14.00">ground_actuation</text>
<polyline fill="none" stroke="black" points="40,-476 317,-476 "/>
<text text-anchor="middle" x="178.5" y="-453.8" font-family="Times,serif" font-size="14.00">actuation</text>
<polyline fill="none" stroke="black" points="40,-439 317,-439 "/>
<text text-anchor="middle" x="178.5" y="-416.8" font-family="Times,serif" font-size="14.00">WorldModelInstance_desired_state</text>
<polyline fill="none" stroke="black" points="40,-402 317,-402 "/>
<text text-anchor="middle" x="178.5" y="-379.8" font-family="Times,serif" font-size="14.00">DefaultModelInstance_desired_state</text>
<polyline fill="none" stroke="black" points="40,-365 317,-365 "/>
<text text-anchor="middle" x="178.5" y="-342.8" font-family="Times,serif" font-size="14.00">iiwa_desired_state</text>
<polyline fill="none" stroke="black" points="40,-328 317,-328 "/>
<text text-anchor="middle" x="178.5" y="-305.8" font-family="Times,serif" font-size="14.00">wsg_desired_state</text>
<polyline fill="none" stroke="black" points="40,-291 317,-291 "/>
<text text-anchor="middle" x="178.5" y="-268.8" font-family="Times,serif" font-size="14.00">shelves1_desired_state</text>
<polyline fill="none" stroke="black" points="40,-254 317,-254 "/>
<text text-anchor="middle" x="178.5" y="-231.8" font-family="Times,serif" font-size="14.00">shelves2_desired_state</text>
<polyline fill="none" stroke="black" points="40,-217 317,-217 "/>
<text text-anchor="middle" x="178.5" y="-194.8" font-family="Times,serif" font-size="14.00">ground_desired_state</text>
<polyline fill="none" stroke="black" points="40,-180 317,-180 "/>
<text text-anchor="middle" x="178.5" y="-157.8" font-family="Times,serif" font-size="14.00">applied_generalized_force</text>
<polyline fill="none" stroke="black" points="40,-143 317,-143 "/>
<text text-anchor="middle" x="178.5" y="-120.3" font-family="Times,serif" font-size="14.00">applied_spatial_force</text>
<polyline fill="none" stroke="black" points="317,-105 317,-772 "/>
<text text-anchor="middle" x="504" y="-756.8" font-family="Times,serif" font-size="14.00">geometry_pose</text>
<polyline fill="none" stroke="black" points="317,-749 691,-749 "/>
<text text-anchor="middle" x="504" y="-733.8" font-family="Times,serif" font-size="14.00">state</text>
<polyline fill="none" stroke="black" points="317,-726 691,-726 "/>
<text text-anchor="middle" x="504" y="-710.8" font-family="Times,serif" font-size="14.00">body_poses</text>
<polyline fill="none" stroke="black" points="317,-703 691,-703 "/>
<text text-anchor="middle" x="504" y="-687.8" font-family="Times,serif" font-size="14.00">spatial_velocities</text>
<polyline fill="none" stroke="black" points="317,-680 691,-680 "/>
<text text-anchor="middle" x="504" y="-664.8" font-family="Times,serif" font-size="14.00">spatial_accelerations</text>
<polyline fill="none" stroke="black" points="317,-657 691,-657 "/>
<text text-anchor="middle" x="504" y="-641.8" font-family="Times,serif" font-size="14.00">generalized_acceleration</text>
<polyline fill="none" stroke="black" points="317,-634 691,-634 "/>
<text text-anchor="middle" x="504" y="-618.8" font-family="Times,serif" font-size="14.00">WorldModelInstance_state</text>
<polyline fill="none" stroke="black" points="317,-611 691,-611 "/>
<text text-anchor="middle" x="504" y="-595.8" font-family="Times,serif" font-size="14.00">WorldModelInstance_generalized_acceleration</text>
<polyline fill="none" stroke="black" points="317,-588 691,-588 "/>
<text text-anchor="middle" x="504" y="-572.8" font-family="Times,serif" font-size="14.00">DefaultModelInstance_state</text>
<polyline fill="none" stroke="black" points="317,-565 691,-565 "/>
<text text-anchor="middle" x="504" y="-549.8" font-family="Times,serif" font-size="14.00">DefaultModelInstance_generalized_acceleration</text>
<polyline fill="none" stroke="black" points="317,-542 691,-542 "/>
<text text-anchor="middle" x="504" y="-526.8" font-family="Times,serif" font-size="14.00">iiwa_state</text>
<polyline fill="none" stroke="black" points="317,-519 691,-519 "/>
<text text-anchor="middle" x="504" y="-503.8" font-family="Times,serif" font-size="14.00">iiwa_generalized_acceleration</text>
<polyline fill="none" stroke="black" points="317,-496 691,-496 "/>
<text text-anchor="middle" x="504" y="-480.8" font-family="Times,serif" font-size="14.00">wsg_state</text>
<polyline fill="none" stroke="black" points="317,-473 691,-473 "/>
<text text-anchor="middle" x="504" y="-457.8" font-family="Times,serif" font-size="14.00">wsg_generalized_acceleration</text>
<polyline fill="none" stroke="black" points="317,-450 691,-450 "/>
<text text-anchor="middle" x="504" y="-434.8" font-family="Times,serif" font-size="14.00">shelves1_state</text>
<polyline fill="none" stroke="black" points="317,-427 691,-427 "/>
<text text-anchor="middle" x="504" y="-411.8" font-family="Times,serif" font-size="14.00">shelves1_generalized_acceleration</text>
<polyline fill="none" stroke="black" points="317,-404 691,-404 "/>
<text text-anchor="middle" x="504" y="-388.8" font-family="Times,serif" font-size="14.00">shelves2_state</text>
<polyline fill="none" stroke="black" points="317,-381 691,-381 "/>
<text text-anchor="middle" x="504" y="-365.8" font-family="Times,serif" font-size="14.00">shelves2_generalized_acceleration</text>
<polyline fill="none" stroke="black" points="317,-358 691,-358 "/>
<text text-anchor="middle" x="504" y="-342.8" font-family="Times,serif" font-size="14.00">ground_state</text>
<polyline fill="none" stroke="black" points="317,-335 691,-335 "/>
<text text-anchor="middle" x="504" y="-319.8" font-family="Times,serif" font-size="14.00">ground_generalized_acceleration</text>
<polyline fill="none" stroke="black" points="317,-312 691,-312 "/>
<text text-anchor="middle" x="504" y="-296.8" font-family="Times,serif" font-size="14.00">WorldModelInstance_generalized_contact_forces</text>
<polyline fill="none" stroke="black" points="317,-289 691,-289 "/>
<text text-anchor="middle" x="504" y="-273.8" font-family="Times,serif" font-size="14.00">DefaultModelInstance_generalized_contact_forces</text>
<polyline fill="none" stroke="black" points="317,-266 691,-266 "/>
<text text-anchor="middle" x="504" y="-250.8" font-family="Times,serif" font-size="14.00">iiwa_generalized_contact_forces</text>
<polyline fill="none" stroke="black" points="317,-243 691,-243 "/>
<text text-anchor="middle" x="504" y="-227.8" font-family="Times,serif" font-size="14.00">wsg_generalized_contact_forces</text>
<polyline fill="none" stroke="black" points="317,-220 691,-220 "/>
<text text-anchor="middle" x="504" y="-204.8" font-family="Times,serif" font-size="14.00">shelves1_generalized_contact_forces</text>
<polyline fill="none" stroke="black" points="317,-197 691,-197 "/>
<text text-anchor="middle" x="504" y="-181.8" font-family="Times,serif" font-size="14.00">shelves2_generalized_contact_forces</text>
<polyline fill="none" stroke="black" points="317,-174 691,-174 "/>
<text text-anchor="middle" x="504" y="-158.8" font-family="Times,serif" font-size="14.00">ground_generalized_contact_forces</text>
<polyline fill="none" stroke="black" points="317,-151 691,-151 "/>
<text text-anchor="middle" x="504" y="-135.8" font-family="Times,serif" font-size="14.00">reaction_forces</text>
<polyline fill="none" stroke="black" points="317,-128 691,-128 "/>
<text text-anchor="middle" x="504" y="-112.8" font-family="Times,serif" font-size="14.00">contact_results</text>
</g>
<!-- 94203003365408&#45;&gt;_94203035847392_y1 -->
<g id="edge15" class="edge">
<title>94203003365408:y28-&gt;_94203035847392_y1</title>
<path fill="none" stroke="green" d="M691,-116C762.67,-116 679.21,-706.59 727,-760 817.83,-861.51 1234.61,-884.96 1420.76,-890.37"/>
<polygon fill="green" stroke="green" points="1420.7,-893.87 1430.79,-890.65 1420.9,-886.88 1420.7,-893.87"/>
</g>
<!-- 94203003365408&#45;&gt;_94203035847392_y2 -->
<g id="edge16" class="edge">
<title>94203003365408:y1-&gt;_94203035847392_y2</title>
<path fill="none" stroke="green" d="M691,-738C748.39,-738 684.74,-823.17 727,-862 918.26,-1037.74 1251.25,-1029.82 1414.78,-1013.19"/>
<polygon fill="green" stroke="green" points="1415.25,-1016.66 1424.83,-1012.13 1414.51,-1009.7 1415.25,-1016.66"/>
</g>
<!-- 94203003365408&#45;&gt;_94203035847392_y3 -->
<g id="edge17" class="edge">
<title>94203003365408:y2-&gt;_94203035847392_y3</title>
<path fill="none" stroke="green" d="M691,-715C737.4,-715 691.85,-782.71 727,-813 833.32,-904.62 1265.31,-934.6 1438.58,-943.06"/>
<polygon fill="green" stroke="green" points="1438.47,-946.56 1448.63,-943.54 1438.81,-939.57 1438.47,-946.56"/>
</g>
<!-- 94202933280592 -->
<g id="node6" class="node">
<title>94202933280592</title>
<polygon fill="none" stroke="black" points="1056,-650.5 1056,-765.5 1355,-765.5 1355,-650.5 1056,-650.5"/>
<text text-anchor="middle" x="1205.5" y="-750.3" font-family="Times,serif" font-size="14.00">scene_graph</text>
<polyline fill="none" stroke="black" points="1056,-742.5 1355,-742.5 "/>
<text text-anchor="middle" x="1176.5" y="-727.3" font-family="Times,serif" font-size="14.00">plant_pose</text>
<polyline fill="none" stroke="black" points="1056,-719.5 1297,-719.5 "/>
<text text-anchor="middle" x="1176.5" y="-704.3" font-family="Times,serif" font-size="14.00">plant_configuration</text>
<polyline fill="none" stroke="black" points="1056,-696.5 1297,-696.5 "/>
<text text-anchor="middle" x="1176.5" y="-681.3" font-family="Times,serif" font-size="14.00">inertia_visualizer_pose</text>
<polyline fill="none" stroke="black" points="1056,-673.5 1297,-673.5 "/>
<text text-anchor="middle" x="1176.5" y="-658.3" font-family="Times,serif" font-size="14.00">inertia_visualizer_configuration</text>
<polyline fill="none" stroke="black" points="1297,-650.5 1297,-742.5 "/>
<text text-anchor="middle" x="1326" y="-692.8" font-family="Times,serif" font-size="14.00">query</text>
</g>
<!-- 94203003365408&#45;&gt;94202933280592 -->
<g id="edge3" class="edge">
<title>94203003365408:y0-&gt;94202933280592:u0</title>
<path fill="none" stroke="black" d="M691,-761C837.37,-761 877.16,-777.97 1020,-746 1032.95,-743.1 1037.01,-735.85 1045.98,-732.61"/>
<polygon fill="black" stroke="black" points="1046.68,-736.04 1056,-731 1045.57,-729.13 1046.68,-736.04"/>
</g>
<!-- 94203042959280 -->
<g id="node10" class="node">
<title>94203042959280</title>
<polygon fill="none" stroke="black" points="812.5,-136 812.5,-182 934.5,-182 934.5,-136 812.5,-136"/>
<text text-anchor="middle" x="873.5" y="-166.8" font-family="Times,serif" font-size="14.00">contact_to_lcm</text>
<polyline fill="none" stroke="black" points="812.5,-159 934.5,-159 "/>
<text text-anchor="middle" x="843" y="-143.8" font-family="Times,serif" font-size="14.00">u0</text>
<polyline fill="none" stroke="black" points="873.5,-136 873.5,-159 "/>
<text text-anchor="middle" x="904" y="-143.8" font-family="Times,serif" font-size="14.00">y0</text>
</g>
<!-- 94203003365408&#45;&gt;94203042959280 -->
<g id="edge13" class="edge">
<title>94203003365408:y28-&gt;94203042959280:u0</title>
<path fill="none" stroke="black" d="M691,-116C742.74,-116 754.74,-143.13 801.35,-146.63"/>
<polygon fill="black" stroke="black" points="801.38,-150.13 811.5,-147 801.63,-143.14 801.38,-150.13"/>
</g>
<!-- 94202955617808 -->
<g id="node12" class="node">
<title>94202955617808</title>
<polygon fill="none" stroke="black" points="727,-674 727,-720 1020,-720 1020,-674 727,-674"/>
<text text-anchor="middle" x="873.5" y="-704.8" font-family="Times,serif" font-size="14.00">inertia_visualizer</text>
<polyline fill="none" stroke="black" points="727,-697 1020,-697 "/>
<text text-anchor="middle" x="811" y="-681.8" font-family="Times,serif" font-size="14.00">plant_geometry_pose</text>
<polyline fill="none" stroke="black" points="895,-674 895,-697 "/>
<text text-anchor="middle" x="957.5" y="-681.8" font-family="Times,serif" font-size="14.00">geometry_pose</text>
</g>
<!-- 94203003365408&#45;&gt;94202955617808 -->
<g id="edge5" class="edge">
<title>94203003365408:y0-&gt;94202955617808:u0</title>
<path fill="none" stroke="black" d="M691,-761C724.29,-761 697.19,-700.72 717.27,-687.53"/>
<polygon fill="black" stroke="black" points="718.2,-690.9 727,-685 716.44,-684.13 718.2,-690.9"/>
</g>
<!-- 94202932752352 -->
<g id="node16" class="node">
<title>94202932752352</title>
<polygon fill="none" stroke="black" points="1406,-242.5 1406,-311.5 1618,-311.5 1618,-242.5 1406,-242.5"/>
<text text-anchor="middle" x="1512" y="-296.3" font-family="Times,serif" font-size="14.00">meshcat_contact_visualizer</text>
<polyline fill="none" stroke="black" points="1406,-288.5 1618,-288.5 "/>
<text text-anchor="middle" x="1485" y="-273.3" font-family="Times,serif" font-size="14.00">contact_results</text>
<polyline fill="none" stroke="black" points="1406,-265.5 1564,-265.5 "/>
<text text-anchor="middle" x="1485" y="-250.3" font-family="Times,serif" font-size="14.00">query_object</text>
<polyline fill="none" stroke="black" points="1564,-242.5 1564,-288.5 "/>
<text text-anchor="middle" x="1591" y="-261.8" font-family="Times,serif" font-size="14.00"> </text>
</g>
<!-- 94203003365408&#45;&gt;94202932752352 -->
<g id="edge1" class="edge">
<title>94203003365408:y28-&gt;94202932752352:u0</title>
<path fill="none" stroke="black" d="M691,-116C986.14,-116 1117.05,48.61 1355,-126 1408.99,-165.62 1342.12,-265.67 1395.01,-276.12"/>
<polygon fill="black" stroke="black" points="1394.73,-279.6 1405,-277 1395.35,-272.63 1394.73,-279.6"/>
</g>
<!-- 94202933280592&#45;&gt;_94203035847392_y0 -->
<g id="edge14" class="edge">
<title>94202933280592:y0-&gt;_94203035847392_y0</title>
<path fill="none" stroke="green" d="M1355,-696C1406.69,-696 1349.14,-772.13 1386.36,-808 1399.02,-820.2 1415.73,-827.73 1432.8,-832.31"/>
<polygon fill="green" stroke="green" points="1432.32,-835.79 1442.85,-834.67 1433.92,-828.98 1432.32,-835.79"/>
</g>
<!-- 94202933280592&#45;&gt;94203003365408 -->
<g id="edge9" class="edge">
<title>94202933280592:y0-&gt;94203003365408:u0</title>
<path fill="none" stroke="black" d="M1326.5,-649C1326.5,-528.78 1156.84,-584.54 1056,-650 1023.3,-671.23 1052.15,-707.94 1020,-730 966.23,-766.89 784.28,-714.84 727,-746 703.1,-759 715.24,-783.16 691,-795.5 432.97,-926.89 246.7,-997.77 39.5,-795.5 29.39,-785.63 23.36,-766.55 29.37,-758.14"/>
<polygon fill="black" stroke="black" points="30.84,-761.32 38.5,-754 27.95,-754.95 30.84,-761.32"/>
</g>
<!-- 94202999543920 -->
<g id="node8" class="node">
<title>94202999543920</title>
<polygon fill="none" stroke="black" points="1401,-620 1401,-666 1623,-666 1623,-620 1401,-620"/>
<text text-anchor="middle" x="1512" y="-650.8" font-family="Times,serif" font-size="14.00">drake_visualizer(illustration)</text>
<polyline fill="none" stroke="black" points="1401,-643 1623,-643 "/>
<text text-anchor="middle" x="1478" y="-627.8" font-family="Times,serif" font-size="14.00">query_object</text>
<polyline fill="none" stroke="black" points="1555,-620 1555,-643 "/>
<text text-anchor="middle" x="1589" y="-627.8" font-family="Times,serif" font-size="14.00"> </text>
</g>
<!-- 94202933280592&#45;&gt;94202999543920 -->
<g id="edge8" class="edge">
<title>94202933280592:y0-&gt;94202999543920:u0</title>
<path fill="none" stroke="black" d="M1355,-696C1386.16,-696 1369.81,-644.89 1390.21,-633.31"/>
<polygon fill="black" stroke="black" points="1391.07,-636.71 1400,-631 1389.46,-629.89 1391.07,-636.71"/>
</g>
<!-- 94202997121840 -->
<g id="node9" class="node">
<title>94202997121840</title>
<polygon fill="none" stroke="black" points="1406,-685 1406,-731 1618,-731 1618,-685 1406,-685"/>
<text text-anchor="middle" x="1512" y="-715.8" font-family="Times,serif" font-size="14.00">drake_visualizer(proximity)</text>
<polyline fill="none" stroke="black" points="1406,-708 1618,-708 "/>
<text text-anchor="middle" x="1480.5" y="-692.8" font-family="Times,serif" font-size="14.00">query_object</text>
<polyline fill="none" stroke="black" points="1555,-685 1555,-708 "/>
<text text-anchor="middle" x="1586.5" y="-692.8" font-family="Times,serif" font-size="14.00"> </text>
</g>
<!-- 94202933280592&#45;&gt;94202997121840 -->
<g id="edge7" class="edge">
<title>94202933280592:y0-&gt;94202997121840:u0</title>
<path fill="none" stroke="black" d="M1355,-696C1373.4,-696 1380.38,-696 1394.85,-696"/>
<polygon fill="black" stroke="black" points="1395,-699.5 1405,-696 1395,-692.5 1395,-699.5"/>
</g>
<!-- 94203007692656 -->
<g id="node13" class="node">
<title>94203007692656</title>
<polygon fill="none" stroke="black" points="1391,-750 1391,-796 1633,-796 1633,-750 1391,-750"/>
<text text-anchor="middle" x="1512" y="-780.8" font-family="Times,serif" font-size="14.00">meshcat_visualizer(illustration)</text>
<polyline fill="none" stroke="black" points="1391,-773 1633,-773 "/>
<text text-anchor="middle" x="1473" y="-757.8" font-family="Times,serif" font-size="14.00">query_object</text>
<polyline fill="none" stroke="black" points="1555,-750 1555,-773 "/>
<text text-anchor="middle" x="1594" y="-757.8" font-family="Times,serif" font-size="14.00"> </text>
</g>
<!-- 94202933280592&#45;&gt;94203007692656 -->
<g id="edge10" class="edge">
<title>94202933280592:y0-&gt;94203007692656:u0</title>
<path fill="none" stroke="black" d="M1355,-696C1383.45,-696 1364.2,-744.88 1379.99,-757.86"/>
<polygon fill="black" stroke="black" points="1379.41,-761.35 1390,-761 1381.5,-754.67 1379.41,-761.35"/>
</g>
<!-- 94202985532256 -->
<g id="node14" class="node">
<title>94202985532256</title>
<polygon fill="none" stroke="black" points="1407,-490 1407,-536 1617,-536 1617,-490 1407,-490"/>
<text text-anchor="middle" x="1512" y="-520.8" font-family="Times,serif" font-size="14.00">meshcat_visualizer(inertia)</text>
<polyline fill="none" stroke="black" points="1407,-513 1617,-513 "/>
<text text-anchor="middle" x="1481" y="-497.8" font-family="Times,serif" font-size="14.00">query_object</text>
<polyline fill="none" stroke="black" points="1555,-490 1555,-513 "/>
<text text-anchor="middle" x="1586" y="-497.8" font-family="Times,serif" font-size="14.00"> </text>
</g>
<!-- 94202933280592&#45;&gt;94202985532256 -->
<g id="edge6" class="edge">
<title>94202933280592:y0-&gt;94202985532256:u0</title>
<path fill="none" stroke="black" d="M1326.5,-649C1326.5,-577.83 1330.89,-507.88 1395.95,-501.48"/>
<polygon fill="black" stroke="black" points="1396.18,-504.97 1406,-501 1395.85,-497.98 1396.18,-504.97"/>
</g>
<!-- 94203031306800 -->
<g id="node15" class="node">
<title>94203031306800</title>
<polygon fill="none" stroke="black" points="1396,-555 1396,-601 1628,-601 1628,-555 1396,-555"/>
<text text-anchor="middle" x="1512" y="-585.8" font-family="Times,serif" font-size="14.00">meshcat_visualizer(proximity)</text>
<polyline fill="none" stroke="black" points="1396,-578 1628,-578 "/>
<text text-anchor="middle" x="1475.5" y="-562.8" font-family="Times,serif" font-size="14.00">query_object</text>
<polyline fill="none" stroke="black" points="1555,-555 1555,-578 "/>
<text text-anchor="middle" x="1591.5" y="-562.8" font-family="Times,serif" font-size="14.00"> </text>
</g>
<!-- 94202933280592&#45;&gt;94203031306800 -->
<g id="edge11" class="edge">
<title>94202933280592:y0-&gt;94203031306800:u0</title>
<path fill="none" stroke="black" d="M1355,-696C1411.44,-696 1344.67,-582.69 1384.74,-567.64"/>
<polygon fill="black" stroke="black" points="1385.68,-571.04 1395,-566 1384.57,-564.13 1385.68,-571.04"/>
</g>
<!-- 94202933280592&#45;&gt;94202932752352 -->
<g id="edge2" class="edge">
<title>94202933280592:y0-&gt;94202932752352:u1</title>
<path fill="none" stroke="black" d="M1326.5,-649C1326.5,-607.31 1355.8,-300.46 1395.98,-258.7"/>
<polygon fill="black" stroke="black" points="1397.75,-261.73 1405,-254 1394.51,-255.52 1397.75,-261.73"/>
</g>
<!-- 94202955358016 -->
<g id="node7" class="node">
<title>94202955358016</title>
<polygon fill="none" stroke="black" points="148.5,-40 148.5,-86 582.5,-86 582.5,-40 148.5,-40"/>
<text text-anchor="middle" x="365.5" y="-70.8" font-family="Times,serif" font-size="14.00">drake/systems/SharedPointerSystem@000055ad55b0df40</text>
<polyline fill="none" stroke="black" points="148.5,-63 582.5,-63 "/>
<text text-anchor="middle" x="257" y="-47.8" font-family="Times,serif" font-size="14.00"> </text>
<polyline fill="none" stroke="black" points="365.5,-40 365.5,-63 "/>
<text text-anchor="middle" x="474" y="-47.8" font-family="Times,serif" font-size="14.00"> </text>
</g>
<!-- 94203042117472 -->
<g id="node11" class="node">
<title>94203042117472</title>
<polygon fill="none" stroke="black" points="1105.5,-136 1105.5,-182 1305.5,-182 1305.5,-136 1105.5,-136"/>
<text text-anchor="middle" x="1205.5" y="-166.8" font-family="Times,serif" font-size="14.00">contact_results_publisher</text>
<polyline fill="none" stroke="black" points="1105.5,-159 1305.5,-159 "/>
<text text-anchor="middle" x="1178" y="-143.8" font-family="Times,serif" font-size="14.00">lcm_message</text>
<polyline fill="none" stroke="black" points="1250.5,-136 1250.5,-159 "/>
<text text-anchor="middle" x="1278" y="-143.8" font-family="Times,serif" font-size="14.00"> </text>
</g>
<!-- 94203042959280&#45;&gt;94203042117472 -->
<g id="edge12" class="edge">
<title>94203042959280:y0-&gt;94203042117472:u0</title>
<path fill="none" stroke="black" d="M935.5,-147C1007.09,-147 1027.5,-147 1094.3,-147"/>
<polygon fill="black" stroke="black" points="1094.5,-150.5 1104.5,-147 1094.5,-143.5 1094.5,-150.5"/>
</g>
<!-- 94202955617808&#45;&gt;94202933280592 -->
<g id="edge4" class="edge">
<title>94202955617808:y0-&gt;94202933280592:u2</title>
<path fill="none" stroke="black" d="M1020,-685C1032,-685 1037.25,-685 1045.88,-685"/>
<polygon fill="black" stroke="black" points="1046,-688.5 1056,-685 1046,-681.5 1046,-688.5"/>
</g>
</g>
</svg>